<svg xmlns="http://www.w3.org/2000/svg" xmlns:xlink="http://www.w3.org/1999/xlink" width="1876" zoomAndPan="magnify" viewBox="0 0 1407 202.499994" height="270" preserveAspectRatio="xMidYMid meet" version="1.0"><defs><clipPath id="f343bab3cd"><path d="M 1.734375 82.050781 L 1405 82.050781 L 1405 201.839844 L 1.734375 201.839844 Z M 1.734375 82.050781 " clip-rule="nonzero"/></clipPath><clipPath id="4b39a85a1d"><path d="M 16.695312 82.050781 L 1390.011719 82.050781 C 1393.980469 82.050781 1397.785156 83.628906 1400.59375 86.433594 C 1403.398438 89.242188 1404.976562 93.046875 1404.976562 97.015625 L 1404.976562 186.878906 C 1404.976562 190.847656 1403.398438 194.652344 1400.59375 197.457031 C 1397.785156 200.265625 1393.980469 201.839844 1390.011719 201.839844 L 16.695312 201.839844 C 12.726562 201.839844 8.921875 200.265625 6.117188 197.457031 C 3.308594 194.652344 1.734375 190.847656 1.734375 186.878906 L 1.734375 97.015625 C 1.734375 93.046875 3.308594 89.242188 6.117188 86.433594 C 8.921875 83.628906 12.726562 82.050781 16.695312 82.050781 Z M 16.695312 82.050781 " clip-rule="nonzero"/></clipPath><clipPath id="720c61584c"><path d="M 65.679688 0 L 211.785156 0 L 211.785156 147 L 65.679688 147 Z M 65.679688 0 " clip-rule="nonzero"/></clipPath><clipPath id="ca48f6a68a"><path d="M 148.632812 0 C 150.238281 0 151.847656 0 153.449219 0 C 166.199219 2.457031 174.167969 10.628906 177.796875 24 C 199.058594 22.214844 216.117188 47.5 205.09375 72.320312 C 208.226562 77.53125 210.839844 83.367188 211.785156 91.195312 C 211.785156 93.4375 211.785156 95.675781 211.785156 97.917969 C 208.972656 117.84375 196.867188 131.308594 177 127.683594 C 171.886719 137.914062 162.792969 148.199219 148.636719 146.882812 C 141.320312 146.210938 136.230469 142.320312 131.773438 137.59375 C 127.082031 141.523438 121.996094 144.609375 114.652344 144.640625 C 97.660156 144.699219 86.292969 129.5625 86.015625 108.800781 C 75.09375 103.945312 67.695312 94.878906 65.679688 79.363281 C 65.679688 77.121094 65.679688 74.875 65.679688 72.640625 C 67.902344 57.269531 74.898438 47.613281 86.546875 43.519531 C 85.847656 17.585938 109.152344 1.382812 128.292969 12.808594 C 132.851562 7.15625 139.300781 0.996094 148.632812 0 Z M 148.632812 0 " clip-rule="nonzero"/></clipPath><clipPath id="6fcfdec6d8"><path d="M 98.546875 40.859375 L 178.832031 40.859375 L 178.832031 80.769531 L 98.546875 80.769531 Z M 98.546875 40.859375 " clip-rule="nonzero"/></clipPath><clipPath id="637fb922ca"><path d="M 152.070312 43.175781 C 147.957031 41.777344 143.28125 40.859375 138.691406 40.859375 C 134.101562 40.859375 129.6875 41.648438 125.617188 43.046875 C 125.53125 43.089844 125.441406 43.089844 125.355469 43.132812 C 110.070312 48.730469 98.8125 63.503906 98.597656 79.464844 L 98.597656 80.769531 L 178.832031 80.769531 L 178.832031 79.464844 C 178.613281 63.417969 167.53125 48.640625 152.070312 43.175781 Z M 152.070312 43.175781 " clip-rule="nonzero"/></clipPath><clipPath id="795c364fc3"><path d="M 657 86.332031 L 750 86.332031 L 750 127.367188 L 657 127.367188 Z M 657 86.332031 " clip-rule="nonzero"/></clipPath><clipPath id="a58f816f27"><path d="M 1196.738281 0 L 1342.84375 0 L 1342.84375 147 L 1196.738281 147 Z M 1196.738281 0 " clip-rule="nonzero"/></clipPath><clipPath id="adaa7a34fe"><path d="M 1279.695312 0 C 1281.296875 0 1282.910156 0 1284.507812 0 C 1297.261719 2.457031 1305.230469 10.628906 1308.859375 24 C 1330.117188 22.214844 1347.175781 47.5 1336.15625 72.320312 C 1339.289062 77.53125 1341.898438 83.367188 1342.84375 91.195312 C 1342.84375 93.4375 1342.84375 95.675781 1342.84375 97.917969 C 1340.03125 117.84375 1327.929688 131.308594 1308.0625 127.683594 C 1302.949219 137.914062 1293.851562 148.199219 1279.699219 146.882812 C 1272.382812 146.210938 1267.292969 142.320312 1262.835938 137.59375 C 1258.140625 141.523438 1253.058594 144.609375 1245.710938 144.640625 C 1228.71875 144.699219 1217.351562 129.5625 1217.078125 108.800781 C 1206.152344 103.945312 1198.753906 94.878906 1196.738281 79.363281 C 1196.738281 77.121094 1196.738281 74.875 1196.738281 72.640625 C 1198.964844 57.269531 1205.960938 47.613281 1217.609375 43.519531 C 1216.910156 17.585938 1240.210938 1.382812 1259.355469 12.808594 C 1263.910156 7.15625 1270.359375 0.996094 1279.695312 0 Z M 1279.695312 0 " clip-rule="nonzero"/></clipPath><clipPath id="a565dad5c2"><path d="M 1229.605469 40.859375 L 1309.890625 40.859375 L 1309.890625 80.769531 L 1229.605469 80.769531 Z M 1229.605469 40.859375 " clip-rule="nonzero"/></clipPath><clipPath id="7cb43ca21f"><path d="M 1283.132812 43.175781 C 1279.019531 41.777344 1274.34375 40.859375 1269.753906 40.859375 C 1265.164062 40.859375 1260.746094 41.648438 1256.675781 43.046875 C 1256.589844 43.089844 1256.503906 43.089844 1256.417969 43.132812 C 1241.132812 48.730469 1229.875 63.503906 1229.65625 79.464844 L 1229.65625 80.769531 L 1309.890625 80.769531 L 1309.890625 79.464844 C 1309.675781 63.417969 1298.589844 48.640625 1283.132812 43.175781 Z M 1283.132812 43.175781 " clip-rule="nonzero"/></clipPath></defs><g clip-path="url(#f343bab3cd)"><g clip-path="url(#4b39a85a1d)"><path fill="#ff9cae" d="M 1.734375 82.050781 L 1405.042969 82.050781 L 1405.042969 201.839844 L 1.734375 201.839844 Z M 1.734375 82.050781 " fill-opacity="1" fill-rule="nonzero"/></g></g><g clip-path="url(#720c61584c)"><g clip-path="url(#ca48f6a68a)"><path fill="#ff9cae" d="M 65.679688 0 L 211.785156 0 L 211.785156 147.246094 L 65.679688 147.246094 Z M 65.679688 0 " fill-opacity="1" fill-rule="nonzero"/></g></g><g clip-path="url(#6fcfdec6d8)"><g clip-path="url(#637fb922ca)"><path fill="#ffffff" d="M 178.832031 80.769531 L 98.546875 80.769531 L 98.546875 40.859375 L 178.832031 40.859375 Z M 178.832031 80.769531 " fill-opacity="1" fill-rule="nonzero"/></g></g><g clip-path="url(#795c364fc3)"><path fill="#ff9cae" d="M 703.347656 50.53125 C 728.648438 50.53125 749.1875 71.074219 749.1875 96.371094 C 749.1875 121.671875 728.070312 128.300781 702.769531 128.300781 C 677.46875 128.300781 657.503906 121.671875 657.503906 96.371094 C 657.503906 71.074219 678.046875 50.53125 703.347656 50.53125 Z M 703.347656 50.53125 " fill-opacity="1" fill-rule="evenodd"/></g><path fill="#ff9cae" d="M 716.984375 103.074219 C 716.984375 103.746094 716.898438 104.40625 716.722656 105.0625 C 716.546875 105.714844 716.289062 106.351562 715.949219 106.96875 C 715.605469 107.585938 715.183594 108.175781 714.6875 108.730469 C 714.1875 109.285156 713.625 109.800781 712.992188 110.273438 C 712.359375 110.742188 711.667969 111.164062 710.925781 111.535156 C 710.179688 111.910156 709.394531 112.222656 708.566406 112.476562 C 707.738281 112.734375 706.886719 112.925781 706.007812 113.054688 C 705.128906 113.1875 704.242188 113.253906 703.347656 113.253906 C 702.449219 113.253906 701.5625 113.1875 700.683594 113.054688 C 699.808594 112.925781 698.953125 112.734375 698.125 112.476562 C 697.300781 112.222656 696.511719 111.910156 695.769531 111.535156 C 695.023438 111.164062 694.335938 110.742188 693.703125 110.273438 C 693.070312 109.800781 692.503906 109.285156 692.003906 108.730469 C 691.507812 108.175781 691.089844 107.585938 690.746094 106.96875 C 690.402344 106.351562 690.144531 105.714844 689.96875 105.0625 C 689.792969 104.40625 689.707031 103.746094 689.707031 103.074219 C 689.707031 102.40625 689.792969 101.746094 689.96875 101.089844 C 690.144531 100.433594 690.402344 99.800781 690.746094 99.183594 C 691.089844 98.5625 691.507812 97.976562 692.003906 97.421875 C 692.503906 96.867188 693.070312 96.351562 693.703125 95.878906 C 694.335938 95.40625 695.023438 94.984375 695.769531 94.613281 C 696.511719 94.242188 697.300781 93.929688 698.125 93.675781 C 698.953125 93.417969 699.808594 93.226562 700.683594 93.09375 C 701.5625 92.964844 702.449219 92.898438 703.347656 92.898438 C 704.242188 92.898438 705.128906 92.964844 706.007812 93.09375 C 706.886719 93.226562 707.738281 93.417969 708.566406 93.675781 C 709.394531 93.929688 710.179688 94.242188 710.925781 94.613281 C 711.667969 94.984375 712.359375 95.40625 712.992188 95.878906 C 713.625 96.351562 714.1875 96.867188 714.6875 97.421875 C 715.183594 97.976562 715.605469 98.5625 715.949219 99.183594 C 716.289062 99.800781 716.546875 100.433594 716.722656 101.089844 C 716.898438 101.746094 716.984375 102.40625 716.984375 103.074219 Z M 716.984375 103.074219 " fill-opacity="1" fill-rule="nonzero"/><path fill="#b84c65" d="M 689.363281 99.457031 C 689.363281 99.75 689.335938 100.039062 689.277344 100.324219 C 689.21875 100.613281 689.136719 100.890625 689.023438 101.160156 C 688.910156 101.429688 688.773438 101.6875 688.613281 101.929688 C 688.449219 102.171875 688.265625 102.398438 688.058594 102.605469 C 687.851562 102.8125 687.625 102.996094 687.382812 103.160156 C 687.140625 103.320312 686.882812 103.460938 686.613281 103.570312 C 686.34375 103.683594 686.0625 103.765625 685.777344 103.824219 C 685.492188 103.882812 685.199219 103.910156 684.910156 103.910156 C 684.617188 103.910156 684.328125 103.882812 684.039062 103.824219 C 683.753906 103.765625 683.472656 103.683594 683.203125 103.570312 C 682.933594 103.460938 682.675781 103.320312 682.433594 103.160156 C 682.191406 102.996094 681.964844 102.8125 681.757812 102.605469 C 681.550781 102.398438 681.367188 102.171875 681.203125 101.929688 C 681.042969 101.6875 680.90625 101.429688 680.792969 101.160156 C 680.679688 100.890625 680.597656 100.613281 680.539062 100.324219 C 680.484375 100.039062 680.453125 99.75 680.453125 99.457031 C 680.453125 99.164062 680.484375 98.875 680.539062 98.585938 C 680.597656 98.300781 680.679688 98.019531 680.792969 97.75 C 680.90625 97.480469 681.042969 97.222656 681.203125 96.980469 C 681.367188 96.738281 681.550781 96.511719 681.757812 96.304688 C 681.964844 96.097656 682.191406 95.914062 682.433594 95.753906 C 682.675781 95.589844 682.933594 95.453125 683.203125 95.339844 C 683.472656 95.226562 683.753906 95.144531 684.039062 95.085938 C 684.328125 95.03125 684.617188 95 684.910156 95 C 685.199219 95 685.492188 95.03125 685.777344 95.085938 C 686.0625 95.144531 686.34375 95.226562 686.613281 95.339844 C 686.882812 95.453125 687.140625 95.589844 687.382812 95.753906 C 687.625 95.914062 687.851562 96.097656 688.058594 96.304688 C 688.265625 96.511719 688.449219 96.738281 688.613281 96.980469 C 688.773438 97.222656 688.910156 97.480469 689.023438 97.75 C 689.136719 98.019531 689.21875 98.300781 689.277344 98.585938 C 689.335938 98.875 689.363281 99.164062 689.363281 99.457031 Z M 689.363281 99.457031 " fill-opacity="1" fill-rule="nonzero"/><path fill="#b84c65" d="M 726.238281 99.457031 C 726.238281 99.75 726.210938 100.039062 726.152344 100.324219 C 726.097656 100.613281 726.011719 100.890625 725.898438 101.160156 C 725.789062 101.429688 725.652344 101.6875 725.488281 101.929688 C 725.324219 102.171875 725.140625 102.398438 724.933594 102.605469 C 724.726562 102.8125 724.503906 102.996094 724.257812 103.160156 C 724.015625 103.320312 723.757812 103.460938 723.488281 103.570312 C 723.21875 103.683594 722.941406 103.765625 722.652344 103.824219 C 722.367188 103.882812 722.078125 103.910156 721.785156 103.910156 C 721.492188 103.910156 721.203125 103.882812 720.914062 103.824219 C 720.628906 103.765625 720.351562 103.683594 720.078125 103.570312 C 719.808594 103.460938 719.554688 103.320312 719.308594 103.160156 C 719.066406 102.996094 718.839844 102.8125 718.636719 102.605469 C 718.429688 102.398438 718.242188 102.171875 718.082031 101.929688 C 717.917969 101.6875 717.78125 101.429688 717.667969 101.160156 C 717.558594 100.890625 717.472656 100.613281 717.414062 100.324219 C 717.359375 100.039062 717.332031 99.75 717.332031 99.457031 C 717.332031 99.164062 717.359375 98.875 717.414062 98.585938 C 717.472656 98.300781 717.558594 98.019531 717.667969 97.75 C 717.78125 97.480469 717.917969 97.222656 718.082031 96.980469 C 718.242188 96.738281 718.429688 96.511719 718.636719 96.304688 C 718.839844 96.097656 719.066406 95.914062 719.308594 95.753906 C 719.554688 95.589844 719.808594 95.453125 720.078125 95.339844 C 720.351562 95.226562 720.628906 95.144531 720.914062 95.085938 C 721.203125 95.03125 721.492188 95 721.785156 95 C 722.078125 95 722.367188 95.03125 722.652344 95.085938 C 722.941406 95.144531 723.21875 95.226562 723.488281 95.339844 C 723.757812 95.453125 724.015625 95.589844 724.257812 95.753906 C 724.503906 95.914062 724.726562 96.097656 724.933594 96.304688 C 725.140625 96.511719 725.324219 96.738281 725.488281 96.980469 C 725.652344 97.222656 725.789062 97.480469 725.898438 97.75 C 726.011719 98.019531 726.097656 98.300781 726.152344 98.585938 C 726.210938 98.875 726.238281 99.164062 726.238281 99.457031 Z M 726.238281 99.457031 " fill-opacity="1" fill-rule="nonzero"/><path fill="#b84c65" d="M 703.347656 100.042969 C 703.261719 100.035156 703.171875 100.035156 703.082031 100.046875 C 702.460938 100.132812 702.023438 100.710938 702.109375 101.332031 C 702.132812 101.476562 702.15625 101.621094 702.183594 101.765625 C 702.125 101.964844 702.050781 102.152344 701.945312 102.324219 C 701.527344 102.980469 700.753906 103.4375 699.964844 103.582031 C 699.285156 103.707031 698.574219 103.597656 698.136719 103.03125 C 697.75 102.535156 697.035156 102.441406 696.535156 102.828125 C 696.039062 103.210938 695.945312 103.929688 696.332031 104.425781 C 697.308594 105.691406 698.855469 106.101562 700.371094 105.824219 C 701.492188 105.621094 702.578125 105.035156 703.347656 104.214844 C 704.117188 105.035156 705.203125 105.621094 706.324219 105.824219 C 707.839844 106.101562 709.382812 105.691406 710.363281 104.425781 C 710.75 103.929688 710.65625 103.210938 710.160156 102.828125 C 709.660156 102.441406 708.945312 102.535156 708.5625 103.03125 C 708.125 103.597656 707.410156 103.707031 706.730469 103.582031 C 705.9375 103.4375 705.164062 102.980469 704.75 102.324219 C 704.644531 102.152344 704.570312 101.964844 704.511719 101.765625 C 704.542969 101.621094 704.5625 101.476562 704.582031 101.332031 C 704.667969 100.710938 704.234375 100.132812 703.613281 100.046875 C 703.523438 100.035156 703.433594 100.035156 703.347656 100.042969 Z M 703.347656 100.042969 " fill-opacity="1" fill-rule="evenodd"/><path fill="#b84c65" d="M 706.949219 99.457031 C 706.949219 99.75 706.855469 100.035156 706.671875 100.308594 C 706.492188 100.582031 706.230469 100.820312 705.894531 101.03125 C 705.554688 101.238281 705.164062 101.398438 704.726562 101.511719 C 704.285156 101.625 703.824219 101.683594 703.347656 101.683594 C 702.867188 101.683594 702.410156 101.625 701.96875 101.511719 C 701.527344 101.398438 701.136719 101.238281 700.800781 101.03125 C 700.460938 100.820312 700.203125 100.582031 700.019531 100.308594 C 699.835938 100.035156 699.746094 99.75 699.746094 99.457031 C 699.746094 99.160156 699.835938 98.875 700.019531 98.601562 C 700.203125 98.332031 700.460938 98.089844 700.800781 97.882812 C 701.136719 97.671875 701.527344 97.511719 701.96875 97.398438 C 702.410156 97.285156 702.867188 97.230469 703.347656 97.230469 C 703.824219 97.230469 704.285156 97.285156 704.726562 97.398438 C 705.164062 97.511719 705.554688 97.671875 705.894531 97.882812 C 706.230469 98.089844 706.492188 98.332031 706.671875 98.601562 C 706.855469 98.875 706.949219 99.160156 706.949219 99.457031 Z M 706.949219 99.457031 " fill-opacity="1" fill-rule="nonzero"/><path fill="#ff9cae" d="M 682.175781 108.699219 C 682.175781 109.136719 682.132812 109.566406 682.046875 109.996094 C 681.960938 110.425781 681.835938 110.839844 681.667969 111.246094 C 681.5 111.648438 681.296875 112.03125 681.050781 112.394531 C 680.808594 112.757812 680.535156 113.09375 680.226562 113.40625 C 679.914062 113.714844 679.578125 113.988281 679.214844 114.230469 C 678.851562 114.476562 678.46875 114.679688 678.066406 114.847656 C 677.660156 115.015625 677.246094 115.140625 676.816406 115.226562 C 676.386719 115.3125 675.957031 115.355469 675.519531 115.355469 C 675.082031 115.355469 674.648438 115.3125 674.21875 115.226562 C 673.792969 115.140625 673.375 115.015625 672.972656 114.847656 C 672.566406 114.679688 672.183594 114.476562 671.820312 114.230469 C 671.457031 113.988281 671.121094 113.714844 670.8125 113.40625 C 670.503906 113.09375 670.226562 112.757812 669.984375 112.394531 C 669.742188 112.03125 669.539062 111.648438 669.371094 111.246094 C 669.203125 110.839844 669.078125 110.425781 668.992188 109.996094 C 668.90625 109.566406 668.863281 109.136719 668.863281 108.699219 C 668.863281 108.261719 668.90625 107.828125 668.992188 107.398438 C 669.078125 106.972656 669.203125 106.554688 669.371094 106.152344 C 669.539062 105.746094 669.742188 105.363281 669.984375 105 C 670.226562 104.636719 670.503906 104.300781 670.8125 103.992188 C 671.121094 103.683594 671.457031 103.40625 671.820312 103.164062 C 672.183594 102.921875 672.566406 102.71875 672.972656 102.550781 C 673.375 102.382812 673.792969 102.257812 674.21875 102.171875 C 674.648438 102.085938 675.082031 102.042969 675.519531 102.042969 C 675.957031 102.042969 676.386719 102.085938 676.816406 102.171875 C 677.246094 102.257812 677.660156 102.382812 678.066406 102.550781 C 678.46875 102.71875 678.851562 102.921875 679.214844 103.164062 C 679.578125 103.40625 679.914062 103.683594 680.226562 103.992188 C 680.535156 104.300781 680.808594 104.636719 681.050781 105 C 681.296875 105.363281 681.5 105.746094 681.667969 106.152344 C 681.835938 106.554688 681.960938 106.972656 682.046875 107.398438 C 682.132812 107.828125 682.175781 108.261719 682.175781 108.699219 Z M 682.175781 108.699219 " fill-opacity="1" fill-rule="nonzero"/><path fill="#ff9cae" d="M 737.828125 108.699219 C 737.828125 109.136719 737.785156 109.566406 737.703125 109.996094 C 737.617188 110.425781 737.488281 110.839844 737.324219 111.246094 C 737.15625 111.648438 736.949219 112.03125 736.707031 112.394531 C 736.464844 112.757812 736.1875 113.09375 735.878906 113.40625 C 735.570312 113.714844 735.234375 113.988281 734.871094 114.230469 C 734.507812 114.476562 734.125 114.679688 733.722656 114.847656 C 733.316406 115.015625 732.902344 115.140625 732.472656 115.226562 C 732.042969 115.3125 731.609375 115.355469 731.175781 115.355469 C 730.738281 115.355469 730.304688 115.3125 729.875 115.226562 C 729.445312 115.140625 729.03125 115.015625 728.628906 114.847656 C 728.222656 114.679688 727.839844 114.476562 727.476562 114.230469 C 727.113281 113.988281 726.777344 113.714844 726.46875 113.40625 C 726.160156 113.09375 725.882812 112.757812 725.640625 112.394531 C 725.398438 112.03125 725.191406 111.648438 725.027344 111.246094 C 724.859375 110.839844 724.730469 110.425781 724.648438 109.996094 C 724.5625 109.566406 724.519531 109.136719 724.519531 108.699219 C 724.519531 108.261719 724.5625 107.828125 724.648438 107.398438 C 724.730469 106.972656 724.859375 106.554688 725.027344 106.152344 C 725.191406 105.746094 725.398438 105.363281 725.640625 105 C 725.882812 104.636719 726.160156 104.300781 726.46875 103.992188 C 726.777344 103.683594 727.113281 103.40625 727.476562 103.164062 C 727.839844 102.921875 728.222656 102.71875 728.628906 102.550781 C 729.03125 102.382812 729.445312 102.257812 729.875 102.171875 C 730.304688 102.085938 730.738281 102.042969 731.175781 102.042969 C 731.609375 102.042969 732.042969 102.085938 732.472656 102.171875 C 732.902344 102.257812 733.316406 102.382812 733.722656 102.550781 C 734.125 102.71875 734.507812 102.921875 734.871094 103.164062 C 735.234375 103.40625 735.570312 103.683594 735.878906 103.992188 C 736.1875 104.300781 736.464844 104.636719 736.707031 105 C 736.949219 105.363281 737.15625 105.746094 737.324219 106.152344 C 737.488281 106.554688 737.617188 106.972656 737.703125 107.398438 C 737.785156 107.828125 737.828125 108.261719 737.828125 108.699219 Z M 737.828125 108.699219 " fill-opacity="1" fill-rule="nonzero"/><path fill="#ff9cae" d="M 246.988281 60.660156 L 259.824219 60.660156 L 259.824219 73.496094 L 246.988281 73.496094 M 272.65625 60.660156 L 285.492188 60.660156 L 285.492188 73.496094 L 272.65625 73.496094 M 298.328125 60.660156 L 311.160156 60.660156 L 311.160156 73.496094 L 298.328125 73.496094 M 323.996094 60.660156 L 336.832031 60.660156 L 336.832031 73.496094 L 323.996094 73.496094 M 349.664062 60.660156 L 362.5 60.660156 L 362.5 73.496094 L 349.664062 73.496094 M 375.332031 60.660156 L 388.167969 60.660156 L 388.167969 73.496094 L 375.332031 73.496094 M 401.003906 60.660156 L 413.835938 60.660156 L 413.835938 73.496094 L 401.003906 73.496094 M 426.671875 60.660156 L 439.507812 60.660156 L 439.507812 73.496094 L 426.671875 73.496094 M 452.339844 60.660156 L 465.175781 60.660156 L 465.175781 73.496094 L 452.339844 73.496094 M 478.011719 60.660156 L 490.84375 60.660156 L 490.84375 73.496094 L 478.011719 73.496094 M 503.679688 60.660156 L 516.515625 60.660156 L 516.515625 73.496094 L 503.679688 73.496094 M 529.347656 60.660156 L 542.183594 60.660156 L 542.183594 73.496094 L 529.347656 73.496094 M 555.015625 60.660156 L 567.851562 60.660156 L 567.851562 73.496094 L 555.015625 73.496094 M 580.6875 60.660156 L 593.519531 60.660156 L 593.519531 73.496094 L 580.6875 73.496094 M 606.355469 60.660156 L 619.191406 60.660156 L 619.191406 73.496094 L 606.355469 73.496094 M 632.023438 60.660156 L 644.859375 60.660156 L 644.859375 73.496094 L 632.023438 73.496094 M 657.695312 60.660156 L 670.527344 60.660156 L 670.527344 73.496094 L 657.695312 73.496094 M 683.363281 60.660156 L 696.195312 60.660156 L 696.195312 73.496094 L 683.363281 73.496094 M 709.03125 60.660156 L 721.867188 60.660156 L 721.867188 73.496094 L 709.03125 73.496094 M 734.699219 60.660156 L 747.535156 60.660156 L 747.535156 73.496094 L 734.699219 73.496094 M 760.371094 60.660156 L 773.203125 60.660156 L 773.203125 73.496094 L 760.371094 73.496094 M 786.039062 60.660156 L 798.875 60.660156 L 798.875 73.496094 L 786.039062 73.496094 M 811.707031 60.660156 L 824.542969 60.660156 L 824.542969 73.496094 L 811.707031 73.496094 M 837.378906 60.660156 L 850.210938 60.660156 L 850.210938 73.496094 L 837.378906 73.496094 M 863.046875 60.660156 L 875.878906 60.660156 L 875.878906 73.496094 L 863.046875 73.496094 M 888.714844 60.660156 L 901.550781 60.660156 L 901.550781 73.496094 L 888.714844 73.496094 M 914.382812 60.660156 L 927.21875 60.660156 L 927.21875 73.496094 L 914.382812 73.496094 M 940.054688 60.660156 L 952.886719 60.660156 L 952.886719 73.496094 L 940.054688 73.496094 M 965.722656 60.660156 L 978.558594 60.660156 L 978.558594 73.496094 L 965.722656 73.496094 M 991.390625 60.660156 L 1004.226562 60.660156 L 1004.226562 73.496094 L 991.390625 73.496094 M 1017.0625 60.660156 L 1029.894531 60.660156 L 1029.894531 73.496094 L 1017.0625 73.496094 M 1042.730469 60.660156 L 1055.5625 60.660156 L 1055.5625 73.496094 L 1042.730469 73.496094 M 1068.398438 60.660156 L 1081.234375 60.660156 L 1081.234375 73.496094 L 1068.398438 73.496094 M 1094.066406 60.660156 L 1106.902344 60.660156 L 1106.902344 73.496094 L 1094.066406 73.496094 M 1119.738281 60.660156 L 1132.570312 60.660156 L 1132.570312 73.496094 L 1119.738281 73.496094 M 1145.40625 60.660156 L 1158.242188 60.660156 L 1158.242188 73.496094 L 1145.40625 73.496094 " fill-opacity="1" fill-rule="nonzero"/><g clip-path="url(#a58f816f27)"><g clip-path="url(#adaa7a34fe)"><path fill="#ff9cae" d="M 1196.738281 0 L 1342.84375 0 L 1342.84375 147.246094 L 1196.738281 147.246094 Z M 1196.738281 0 " fill-opacity="1" fill-rule="nonzero"/></g></g><g clip-path="url(#a565dad5c2)"><g clip-path="url(#7cb43ca21f)"><path fill="#ffffff" d="M 1309.890625 80.769531 L 1229.605469 80.769531 L 1229.605469 40.859375 L 1309.890625 40.859375 Z M 1309.890625 80.769531 " fill-opacity="1" fill-rule="nonzero"/></g></g></svg>